<?xml version="1.0" encoding="UTF-8"?>
<svg width="3300px" height="2200px" viewBox="0 0 3300 2200" version="1.1" xmlns="http://www.w3.org/2000/svg" xmlns:xlink="http://www.w3.org/1999/xlink">
    <title>HexHunter.H</title>
    <g id="SF-Symbol---HexHunter-H" stroke="none" stroke-width="1" fill="none" fill-rule="evenodd">
        <g id="HexHunter.H">
            <g id="Notes">
                <rect id="artboard" fill="#FFFFFF" fill-rule="nonzero" x="0" y="0" width="3300" height="2200"></rect>
                <line x1="263" y1="292" x2="3036" y2="292" id="Path" stroke="#000000" stroke-width="0.5"></line>
                <text id="Weight/Scale-Variations" fill="#000000" fill-rule="nonzero" font-family="Helvetica" font-size="13" font-weight="normal">
                    <tspan x="263" y="322">Weight/Scale Variations</tspan>
                </text>
                <text id="Ultralight" fill="#000000" fill-rule="nonzero" font-family="Helvetica" font-size="13" font-weight="normal">
                    <tspan x="533.711" y="322">Ultralight</tspan>
                </text>
                <text id="Thin" fill="#000000" fill-rule="nonzero" font-family="Helvetica" font-size="13" font-weight="normal">
                    <tspan x="843.422" y="322">Thin</tspan>
                </text>
                <text id="Light" fill="#000000" fill-rule="nonzero" font-family="Helvetica" font-size="13" font-weight="normal">
                    <tspan x="1138.63" y="322">Light</tspan>
                </text>
                <text id="Regular" fill="#000000" fill-rule="nonzero" font-family="Helvetica" font-size="13" font-weight="normal">
                    <tspan x="1426.84" y="322">Regular</tspan>
                </text>
                <text id="Medium" fill="#000000" fill-rule="nonzero" font-family="Helvetica" font-size="13" font-weight="normal">
                    <tspan x="1723.06" y="322">Medium</tspan>
                </text>
                <text id="Semibold" fill="#000000" fill-rule="nonzero" font-family="Helvetica" font-size="13" font-weight="normal">
                    <tspan x="2015.77" y="322">Semibold</tspan>
                </text>
                <text id="Bold" fill="#000000" fill-rule="nonzero" font-family="Helvetica" font-size="13" font-weight="normal">
                    <tspan x="2326.48" y="322">Bold</tspan>
                </text>
                <text id="Heavy" fill="#000000" fill-rule="nonzero" font-family="Helvetica" font-size="13" font-weight="normal">
                    <tspan x="2618.19" y="322">Heavy</tspan>
                </text>
                <text id="Black" fill="#000000" fill-rule="nonzero" font-family="Helvetica" font-size="13" font-weight="normal">
                    <tspan x="2917.4" y="322">Black</tspan>
                </text>
                <line x1="263" y1="1903" x2="3036" y2="1903" id="Path" stroke="#000000" stroke-width="0.5"></line>
                <g id="Group" transform="translate(264.3672, 1918.0684)" fill="#000000" fill-rule="nonzero">
                    <path d="M7.88088,15.76172 C12.18752,15.76172 15.7715,12.1875 15.7715,7.88086 C15.7715,3.57422 12.17774,0 7.8711,0 C3.57422,0 0,3.57422 0,7.88086 C0,12.1875 3.58398,15.76172 7.88086,15.76172 L7.88088,15.76172 Z M7.88088,14.277344 C4.33596,14.277344 1.50392,11.435544 1.50392,7.880864 C1.50392,4.326184 4.32618,1.484384 7.8711,1.484384 C11.42578,1.484384 14.27734,4.326184 14.27734,7.880864 C14.27734,11.435544 11.43554,14.277344 7.88086,14.277344 L7.88088,14.277344 Z M4.28712,7.880864 C4.28712,8.310552 4.589854,8.60352 5.039074,8.60352 L7.138674,8.60352 L7.138674,10.72266 C7.138674,11.162114 7.431642,11.464848 7.86133,11.464848 C8.310548,11.464848 8.603518,11.162114 8.603518,10.72266 L8.603518,8.60352 L10.722658,8.60352 C11.162112,8.60352 11.464846,8.310552 11.464846,7.880864 C11.464846,7.44141 11.162112,7.138676 10.722658,7.138676 L8.603518,7.138676 L8.603518,5.029296 C8.603518,4.580078 8.31055,4.277342 7.86133,4.277342 C7.431642,4.277342 7.138674,4.580076 7.138674,5.029296 L7.138674,7.138676 L5.039074,7.138676 C4.589856,7.138676 4.28712,7.44141 4.28712,7.880864 Z" id="Shape"></path>
                </g>
                <g id="Group" transform="translate(283.254, 1915.9883)" fill="#000000" fill-rule="nonzero">
                    <path d="M9.96094,19.92188 C15.41016,19.92188 19.92188,15.4004 19.92188,9.96094 C19.92188,4.51172 15.4004,0 9.95118,0 C4.51172,0 0,4.51172 0,9.96094 C0,15.4004 4.52148,19.92188 9.96094,19.92188 Z M9.96094,18.261724 C5.35156,18.261724 1.66992,14.570324 1.66992,9.960944 C1.66992,5.351564 5.3418,1.660164 9.95116,1.660164 C14.56052,1.660164 18.2617,5.351564 18.2617,9.960944 C18.2617,14.570324 14.5703,18.261724 9.96092,18.261724 L9.96094,18.261724 Z M5.4297,9.960944 C5.4297,10.43946 5.761732,10.761726 6.259778,10.761726 L9.130878,10.761726 L9.130878,13.642586 C9.130878,14.130868 9.46291,14.472664 9.941424,14.472664 C10.4297,14.472664 10.771502,14.140632 10.771502,13.642586 L10.771502,10.761726 L13.652362,10.761726 C14.140644,10.761726 14.48244,10.43946 14.48244,9.960944 C14.48244,9.472662 14.140644,9.130866 13.652362,9.130866 L10.771502,9.130866 L10.771502,6.259766 C10.771502,5.76172 10.4297,5.419922 9.941424,5.419922 C9.462908,5.419922 9.130878,5.761718 9.130878,6.259766 L9.130878,9.130866 L6.259778,9.130866 C5.761732,9.130866 5.4297,9.472662 5.4297,9.960944 Z" id="Shape"></path>
                </g>
                <g id="Group" transform="translate(307.1798, 1913.2246)" fill="#000000" fill-rule="nonzero">
                    <path d="M12.71486,25.43944 C19.67776,25.43944 25.43946,19.67772 25.43946,12.7246 C25.43946,5.7617 19.66798,0 12.70508,0 C5.75196,0 -1.42108547e-15,5.76172 -1.42108547e-15,12.7246 C-1.42108547e-15,19.67772 5.76172,25.43944 12.71484,25.43944 L12.71486,25.43944 Z M12.71486,23.623034 C6.6797,23.623034 1.82618,18.759754 1.82618,12.724594 C1.82618,6.679674 6.66994,1.826154 12.70508,1.826154 C18.75,1.826154 23.61328,6.679674 23.61328,12.724594 C23.61328,18.759754 18.75976,23.623034 12.71484,23.623034 L12.71486,23.623034 Z M6.94338,12.724594 C6.94338,13.242172 7.314474,13.6035 7.861348,13.6035 L11.806668,13.6035 L11.806668,17.55858 C11.806668,18.09569 12.177762,18.476548 12.69534,18.476548 C13.23245,18.476548 13.603544,18.105454 13.603544,17.55858 L13.603544,13.6035 L17.558624,13.6035 C18.095734,13.6035 18.476592,13.242172 18.476592,12.724594 C18.476592,12.177718 18.105498,11.806626 17.558624,11.806626 L13.603544,11.806626 L13.603544,7.861306 C13.603544,7.31443 13.23245,6.933572 12.69534,6.933572 C12.177762,6.933572 11.806668,7.314432 11.806668,7.861306 L11.806668,11.806626 L7.861348,11.806626 C7.314472,11.806626 6.94338,12.17772 6.94338,12.724594 Z" id="Shape"></path>
                </g>
                <text id="Design-Variations" fill="#000000" fill-rule="nonzero" font-family="Helvetica" font-size="13" font-weight="normal">
                    <tspan x="263" y="1953">Design Variations</tspan>
                </text>
                <text id="Symbols-are-supported-in-up-to-nine-weights-and-three-scales." fill="#000000" fill-rule="nonzero" font-family="Helvetica" font-size="13" font-weight="normal">
                    <tspan x="263" y="1971">Symbols are supported in up to nine weights and three scales.</tspan>
                </text>
                <text id="For-optimal-layout-with-text-and-other-symbols,-vertically-align" fill="#000000" fill-rule="nonzero" font-family="Helvetica" font-size="13" font-weight="normal">
                    <tspan x="263" y="1989">For optimal layout with text and other symbols, vertically align</tspan>
                </text>
                <text id="symbols-with-the-adjacent-text." fill="#000000" fill-rule="nonzero" font-family="Helvetica" font-size="13" font-weight="normal">
                    <tspan x="263" y="2007">symbols with the adjacent text.</tspan>
                </text>
                <line x1="776" y1="1919" x2="776" y2="1933" id="Path" stroke="#00AEEF" stroke-width="0.5"></line>
                <g id="Group" transform="translate(778.4902, 1918.7324)" fill="#000000" fill-rule="nonzero">
                    <path d="M0.8203116,14.423832 C1.3378896,14.423832 1.5917956,14.2285116 1.7773436,13.681636 L3.0371096,10.234376 L8.7988296,10.234376 L10.0585956,13.681636 C10.2441424,14.228512 10.4980496,14.423832 11.0058616,14.423832 C11.5234396,14.423832 11.8554716,14.111324 11.8554716,13.623042 C11.8554716,13.4570264 11.8261748,13.300776 11.7480498,13.095698 L7.1679698,0.898438 C6.9433598,0.302734 6.5429698,0 5.9179698,0 C5.3125018,0 4.9023458,0.292968 4.6875018,0.888672 L0.1074218,13.105472 C0.0292968,13.31055 -3.55271368e-16,13.4668 -3.55271368e-16,13.632816 C-3.55271368e-16,14.121098 0.3125,14.423832 0.820312,14.423832 L0.8203116,14.423832 Z M3.5156316,8.750004 L5.8886716,2.177744 L5.9374998,2.177744 L8.3105398,8.750004 L3.5156316,8.750004 Z" id="Shape"></path>
                </g>
                <line x1="792.836" y1="1919" x2="792.836" y2="1933" id="Path" stroke="#00AEEF" stroke-width="0.5"></line>
                <text id="Margins" fill="#000000" fill-rule="nonzero" font-family="Helvetica" font-size="13" font-weight="normal">
                    <tspan x="776" y="1953">Margins</tspan>
                </text>
                <text id="Leading-and-trailing-margins-on-the-left-and-right-side-of-each-symbol" fill="#000000" fill-rule="nonzero" font-family="Helvetica" font-size="13" font-weight="normal">
                    <tspan x="776" y="1971">Leading and trailing margins on the left and right side of each symbol</tspan>
                </text>
                <text id="can-be-adjusted-by-modifying-the-x-location-of-the-margin-guidelines." fill="#000000" fill-rule="nonzero" font-family="Helvetica" font-size="13" font-weight="normal">
                    <tspan x="776" y="1989">can be adjusted by modifying the x-location of the margin guidelines.</tspan>
                </text>
                <text id="Modifications-are-automatically-applied-proportionally-to-all" fill="#000000" fill-rule="nonzero" font-family="Helvetica" font-size="13" font-weight="normal">
                    <tspan x="776" y="2007">Modifications are automatically applied proportionally to all</tspan>
                </text>
                <text id="scales-and-weights." fill="#000000" fill-rule="nonzero" font-family="Helvetica" font-size="13" font-weight="normal">
                    <tspan x="776" y="2025">scales and weights.</tspan>
                </text>
                <g id="Group" transform="translate(1291.2481, 1914.5174)" fill="#000000" fill-rule="nonzero">
                    <path d="M0.593687825,20.3477978 L2.29290583,22.0567818 C3.15228183,22.9259218 4.13860983,22.8673278 5.06634583,21.8419378 L15.7597058,10.0548378 L14.7929098,9.07827578 L4.17766983,20.7579558 C3.82610783,21.1583458 3.49407583,21.2560018 3.02532583,20.7872526 L1.85344983,19.6251426 C1.38469983,19.1661586 1.49212183,18.8243606 1.89251223,18.4630326 L13.3671122,7.66225258 L12.3905502,6.69545658 L0.798750225,17.5841366 C-0.187577775,18.5021046 -0.265703775,19.4786686 0.593672225,20.3478166 L0.593687825,20.3477978 Z M7.00970783,2.15443778 C6.58978583,2.56459378 6.56048983,3.14076578 6.79486383,3.53139178 C7.02923983,3.89271978 7.48822383,4.12709578 8.13275383,3.96107978 C9.59759783,3.61928378 11.1210338,3.56068978 12.5468138,4.49818978 L11.9608758,5.95326778 C11.6190798,6.78334578 11.7948602,7.36928378 12.3319698,7.91615778 L14.6268898,10.2306178 C15.1151718,10.7188998 15.5253278,10.7384298 16.0917338,10.6407738 L17.1561878,10.4454614 L17.8202498,11.1192894 L17.7811874,11.6759294 C17.742125,12.1739754 17.869078,12.5548354 18.3573594,13.0333514 L19.1190774,13.7755394 C19.5975934,14.2540554 20.2128274,14.2833514 20.6815774,13.8146018 L23.5917374,10.8946818 C24.0604874,10.4259318 24.0409554,9.83022778 23.5624406,9.35171378 L22.7909566,8.58999578 C22.3124406,8.11147978 21.9413466,7.95522978 21.4628326,7.99429178 L20.8866606,8.04311998 L20.2421286,7.40835398 L20.4862686,6.28530798 C20.6132218,5.71890198 20.4569718,5.27944798 19.8710346,4.69351198 L17.6737746,2.50601198 C14.3339346,-0.814308021 9.90033463,-0.736168021 7.00971463,2.15444998 L7.00970783,2.15443778 Z M8.50384783,2.52553178 C10.9354878,0.748187779 14.2265078,1.05092178 16.4530678,3.27748578 L18.8847078,5.68958578 C19.1190838,5.92396178 19.1581458,6.10950778 19.0897858,6.45130378 L18.7675198,7.93567978 L20.2714258,9.42005578 L21.2577538,9.36146198 C21.5116598,9.35169636 21.5897858,9.3712276 21.7850978,9.56653998 L22.3612698,10.142712 L19.9198698,12.584112 L19.3436978,12.00794 C19.1483854,11.8126276 19.1190878,11.734502 19.1288538,11.47083 L19.1972132,10.494268 L17.7030732,9.00989198 L16.1796352,9.26379798 C15.8573692,9.33215738 15.7108852,9.30286038 15.4667452,9.06848558 L13.4647852,7.06652558 C13.2108792,6.83214958 13.1815812,6.66613558 13.337832,6.29504158 L14.216738,4.20520158 C12.654238,2.75012358 10.622978,2.12512158 8.59173803,2.72082558 C8.43548803,2.75988798 8.37689403,2.63293498 8.50384743,2.52551318 L8.50384783,2.52553178 Z" id="Shape"></path>
                </g>
                <text id="Exporting" fill="#000000" fill-rule="nonzero" font-family="Helvetica" font-size="13" font-weight="normal">
                    <tspan x="1289" y="1953">Exporting</tspan>
                </text>
                <text id="Symbols-should-be-outlined-when-exporting-to-ensure-the" fill="#000000" fill-rule="nonzero" font-family="Helvetica" font-size="13" font-weight="normal">
                    <tspan x="1289" y="1971">Symbols should be outlined when exporting to ensure the</tspan>
                </text>
                <text id="design-is-preserved-when-submitting-to-Xcode." fill="#000000" fill-rule="nonzero" font-family="Helvetica" font-size="13" font-weight="normal">
                    <tspan x="1289" y="1989">design is preserved when submitting to Xcode.</tspan>
                </text>
                <text id="template-version" fill="#000000" fill-rule="nonzero" font-family="Helvetica" font-size="13" font-weight="normal">
                    <tspan x="2952" y="1933">Template v.5.0</tspan>
                </text>
                <text id="Requires-Xcode-15-or-greater" fill="#000000" fill-rule="nonzero" font-family="Helvetica" font-size="13" font-weight="normal">
                    <tspan x="2865" y="1951">Requires Xcode 15 or greater</tspan>
                </text>
                <text id="descriptive-name" fill="#000000" fill-rule="nonzero" font-family="Helvetica" font-size="13" font-weight="normal">
                    <tspan x="2900" y="1969">Generated from h.circle</tspan>
                </text>
                <text id="Typeset-at-100.0-points" fill="#000000" fill-rule="nonzero" font-family="Helvetica" font-size="13" font-weight="normal">
                    <tspan x="2901" y="1987">Typeset at 100.0 points</tspan>
                </text>
                <text id="Small" fill="#000000" fill-rule="nonzero" font-family="Helvetica" font-size="13" font-weight="normal">
                    <tspan x="263" y="726">Small</tspan>
                </text>
                <text id="Medium" fill="#000000" fill-rule="nonzero" font-family="Helvetica" font-size="13" font-weight="normal">
                    <tspan x="263" y="1156">Medium</tspan>
                </text>
                <text id="Large" fill="#000000" fill-rule="nonzero" font-family="Helvetica" font-size="13" font-weight="normal">
                    <tspan x="263" y="1586">Large</tspan>
                </text>
            </g>
            <g id="Guides" transform="translate(263, 600.785)">
                <g id="H-reference" transform="translate(76.9937, 24.756)" fill="#27AAE1" fill-rule="nonzero">
                    <path d="M0,70.459 L2.644096,70.459 L28.334446,3.3267 L29.036646,3.3267 L29.036646,0 L27.128946,0 L0,70.459 Z M10.694846,45.9791 L45.987846,45.9791 L45.237846,43.7305 L11.444846,43.7305 L10.694846,45.9791 Z M54.125946,70.459 L56.770046,70.459 L29.644546,0 L28.438946,0 L28.438946,3.3267 L54.125946,70.459 Z" id="Shape"></path>
                </g>
                <line x1="0" y1="95.215" x2="2773" y2="95.215" id="Baseline-S" stroke="#27AAE1" stroke-width="0.5"></line>
                <line x1="0" y1="24.756" x2="2773" y2="24.756" id="Capline-S" stroke="#27AAE1" stroke-width="0.5"></line>
                <g id="H-reference" transform="translate(76.9937, 454.756)" fill="#27AAE1" fill-rule="nonzero">
                    <path d="M0,70.459 L2.644096,70.459 L28.334446,3.3267 L29.036646,3.3267 L29.036646,0 L27.128946,0 L0,70.459 Z M10.694846,45.9791 L45.987846,45.9791 L45.237846,43.7305 L11.444846,43.7305 L10.694846,45.9791 Z M54.125946,70.459 L56.770046,70.459 L29.644546,0 L28.438946,0 L28.438946,3.3267 L54.125946,70.459 Z" id="Shape"></path>
                </g>
                <line x1="0" y1="525.215" x2="2773" y2="525.215" id="Baseline-M" stroke="#27AAE1" stroke-width="0.5"></line>
                <line x1="0" y1="454.755" x2="2773" y2="454.755" id="Capline-M" stroke="#27AAE1" stroke-width="0.5"></line>
                <g id="H-reference" transform="translate(76.9937, 884.756)" fill="#27AAE1" fill-rule="nonzero">
                    <path d="M0,70.459 L2.644096,70.459 L28.334446,3.3267 L29.036646,3.3267 L29.036646,0 L27.128946,0 L0,70.459 Z M10.694846,45.9791 L45.987846,45.9791 L45.237846,43.7305 L11.444846,43.7305 L10.694846,45.9791 Z M54.125946,70.459 L56.770046,70.459 L29.644546,0 L28.438946,0 L28.438946,3.3267 L54.125946,70.459 Z" id="Shape"></path>
                </g>
                <line x1="0" y1="955.215" x2="2773" y2="955.215" id="Baseline-L" stroke="#27AAE1" stroke-width="0.5"></line>
                <line x1="0" y1="884.755" x2="2773" y2="884.755" id="Capline-L" stroke="#27AAE1" stroke-width="0.5"></line>
                <line x1="252.649" y1="1.13686838e-13" x2="252.649" y2="119.336" id="left-margin-Ultralight-S" stroke="#00AEEF" stroke-width="0.5"></line>
                <line x1="340.773" y1="1.13686838e-13" x2="340.773" y2="119.336" id="right-margin-Ultralight-S" stroke="#00AEEF" stroke-width="0.5"></line>
                <line x1="1140.58" y1="1.13686838e-13" x2="1140.58" y2="119.336" id="left-margin-Regular-S" stroke="#00AEEF" stroke-width="0.5"></line>
                <line x1="1233.11" y1="1.13686838e-13" x2="1233.11" y2="119.336" id="right-margin-Regular-S" stroke="#00AEEF" stroke-width="0.5"></line>
                <line x1="2621.57" y1="1.13686838e-13" x2="2621.57" y2="119.336" id="left-margin-Black-S" stroke="#00AEEF" stroke-width="0.5"></line>
                <line x1="2719.23" y1="1.13686838e-13" x2="2719.23" y2="119.336" id="right-margin-Black-S" stroke="#00AEEF" stroke-width="0.5"></line>
            </g>
            <g id="Symbols" transform="translate(542, 613)" fill-rule="nonzero" stroke="#000000" stroke-width="0.5">
                <g id="Black-S" transform="translate(2368, 0)">
                    <path d="M45.588296,3.0084339 C43.7924677,1.06591243 41.5352087,-0.0649988345 39.1304784,0.00289250004 C33.3230188,0.166851087 30.5463204,1.24121148 29.8566121,3.89915703 C29.3547907,5.83303808 29.6066338,8.12250214 30.6172263,10.7687953 L30.6297752,10.8016555 L30.6263931,10.836618 C29.9634936,17.6892788 29.7085802,22.5003543 29.8611835,25.2648845 C30.0146161,28.0444398 29.9890762,32.8899125 29.7847778,39.804108 L29.781111,39.9282046 L29.6572277,39.9488942 L18.7846115,41.7647149 L18.6073122,41.7943254 L18.6059603,41.6166502 C18.5822575,38.5015922 18.5695596,35.6583487 18.5678673,33.0869032 L18.5678676,31.9193813 C18.5695616,29.4315655 18.5822612,27.215545 18.605967,25.271303 C18.6571178,21.0761667 18.8361964,18.1943487 19.1447201,16.6192237 L19.1716917,16.558338 C21.7012917,13.1589028 22.7847275,10.4949007 22.4367506,8.579176 C21.824914,5.21081994 17.8762096,2.35689491 12.7122563,2.42403543 C7.191569,2.49581413 2.52673476,4.56295347 2.52673476,6.66096355 C2.52673476,8.0501262 2.85317694,9.41484013 3.50695496,10.7565751 L3.52211511,10.8222194 L3.52211511,43.0486482 L3.46650879,43.0940388 C1.15155527,44.9837004 0,47.0863258 0,49.4084098 C0,51.7375667 1.15836302,54.2009844 3.48367759,56.7984107 L3.52211511,56.8413462 L3.52211511,84.0273706 L3.49951812,84.0637764 C1.21502926,87.7442905 3.34676439,90.7814842 10.007096,93.2245435 C14.5935107,94.9068747 17.6279911,94.1501619 19.0836664,91.4788425 C20.3225195,89.2054148 20.2910093,85.6351201 19.1499641,82.2928703 C17.711896,78.0806067 17.507321,70.0452411 18.5299398,58.1720449 L18.5393708,58.062546 L18.6476655,58.0375307 L30.6279484,55.2701758 L30.6270864,55.4618181 L30.5505187,72.4851374 L30.5503386,72.5251796 L30.5301389,72.5598927 C28.2039729,76.5573964 27.4994752,79.5657085 28.3937062,81.5783992 C29.9017619,84.9726564 31.9971507,86.6510371 36.4789592,87.6197997 C39.4024432,88.2517236 41.8710693,88.237758 43.6325419,87.3674722 C45.8242884,86.2846021 46.8118921,83.9139377 46.3246124,79.9931698 C45.6089301,74.2346202 45.353522,65.5780711 45.5578167,54.0209781 L45.5599482,53.9003937 L45.6793813,53.8755483 C48.5213593,53.2843364 49.9490959,51.7032724 49.9987483,49.1029185 C50.0489558,46.4734985 48.5844228,43.4544329 45.5952621,40.0501772 L45.5577933,40.0075052 L45.5577933,14.4793673 L45.5881075,14.4391427 C47.3559437,12.0933596 48.2111332,10.0056085 48.1611517,8.17823569 C48.1219622,6.74543001 47.1127834,4.65744994 45.588296,3.0084339 Z" id="Path"></path>
                </g>
                <g id="Regular-S" transform="translate(884, 0)">
                    <path d="M45.5882992,3.00467357 C43.7924709,1.06458012 41.5352117,-0.0649175906 39.1304812,0.00288888462 C33.3230212,0.166642535 30.5463226,1.23966005 29.8566142,3.89428336 C29.3547928,5.8257472 29.6066359,8.11234959 30.6172285,10.7553351 L30.6297774,10.7881542 L30.6263953,10.823073 C29.9634958,17.6671685 29.7085823,22.4722305 29.8611856,25.2333052 C30.0146183,28.0093863 29.9890784,32.8488024 29.7847799,39.7543557 L29.7811132,39.8782972 L29.6572298,39.8989609 L18.7846128,41.712512 L18.6073135,41.7420855 L18.6059616,41.5646324 C18.5822589,38.4534679 18.569561,35.6137783 18.5678686,33.0455469 L18.5678689,31.8794844 C18.5695629,29.3947782 18.5822625,27.1815275 18.6059684,25.2397157 C18.6571191,21.049823 18.8361978,18.1716071 19.1447215,16.5984509 L19.1716931,16.5376412 C21.7012932,13.1424551 22.7847292,10.4817829 22.4367522,8.56845265 C21.8249156,5.20430679 17.8762109,2.35394896 12.7122572,2.42100556 C7.19156952,2.49269454 2.52673494,4.5572501 2.52673494,6.65263783 C2.52673494,8.04006412 2.85317714,9.40307225 3.50695521,10.7431302 L3.52211537,10.8086924 L3.52211537,42.9948405 L3.46650904,43.0401743 C1.15155536,44.927474 2.84217094e-14,47.0274713 2.84217094e-14,49.3466529 C2.84217094e-14,51.6728984 1.1583631,54.133237 3.48367784,56.7274168 L3.52211537,56.7702986 L3.52211537,83.9223425 L3.49951837,83.9587027 C1.21502935,87.6346165 3.34676463,90.6680139 10.0070967,93.1080195 C14.5935117,94.7882479 17.6279924,94.0324809 19.0836677,91.3645005 C20.3225209,89.0939144 20.2910108,85.5280824 19.1499655,82.1900101 C17.7118973,77.9830115 17.5073223,69.9576896 18.5299411,58.099334 L18.5393721,57.989972 L18.6476669,57.964988 L30.6279506,55.201092 L30.6270886,55.3924948 L30.5505209,72.3945362 L30.5503408,72.4345283 L30.5301411,72.4691981 C28.2039749,76.4617052 27.4994772,79.466257 28.3937082,81.4764321 C29.901764,84.8664466 31.997153,86.5427295 36.4789618,87.5102813 C39.402446,88.1414153 41.8710723,88.1274671 43.632545,87.2582691 C45.8242917,86.1767526 46.8118954,83.8090513 46.3246157,79.8931841 C45.6089334,74.1418323 45.3535252,65.4961032 45.55782,53.9534558 L45.5599515,53.8330221 L45.6793845,53.8082077 C48.5213628,53.2177348 49.9490995,51.638647 49.9987519,49.0415434 C50.0489594,46.41541 48.5844262,43.400118 45.5952654,40.0001174 L45.5577966,39.9574987 L45.5577966,14.4612692 L45.5881108,14.4210948 C47.3559471,12.0782438 48.2111367,9.99310216 48.1611552,8.16801348 C48.1219657,6.7369987 47.1127868,4.65162846 45.5882992,3.00467357 Z" id="Path"></path>
                </g>
                <g id="Ultralight-S" transform="translate(0, 6)">
                    <path d="M44.8742656,3.03663819 C43.1065647,1.07590544 40.8846601,-0.0656082032 38.5175941,0.00291961744 C32.8010943,0.168415328 30.0678862,1.25284793 29.3889805,3.93571191 C28.895019,5.88772323 29.1429175,8.19865118 30.1376815,10.8697536 L30.1500339,10.9029218 L30.1467048,10.9382121 C29.494188,17.8551171 29.2432672,22.7112968 29.3934803,25.5017446 C29.5445098,28.3073585 29.5193699,33.1982578 29.3182713,40.1772744 L29.314662,40.3025344 L29.192719,40.323418 L18.490396,42.1562621 L18.3158737,42.1861502 L18.3145429,42.0068094 C18.2912114,38.8625474 18.2787124,35.9926483 18.2770465,33.3970953 L18.2770469,32.2186279 C18.2787143,29.7074886 18.291215,27.4706927 18.3145496,25.5082233 C18.3648992,21.2737573 18.541173,18.364922 18.8448644,16.7750302 L18.8714135,16.7135736 C21.3613934,13.2822684 22.4278599,10.5932912 22.0853332,8.6596064 C21.4830796,5.25967175 17.596222,2.37899097 12.5131495,2.44676094 C7.07893048,2.51921256 2.48715957,4.60573149 2.48715957,6.72341057 C2.48715957,8.12559671 2.80848883,9.50310493 3.452027,10.8574188 L3.4669497,10.9236785 L3.4669497,43.4522324 L3.41221432,43.4980485 C1.13351895,45.4054259 0,47.5277635 0,49.8716172 C0,52.2226101 1.14022006,54.7091225 3.42911421,57.3308999 L3.4669497,57.374238 L3.4669497,84.8151333 L3.44470664,84.8518804 C1.19599877,88.5668996 3.29434542,91.6325672 9.85035903,94.0985304 C14.3649387,95.7966335 17.3518913,95.0328265 18.7847669,92.3364633 C20.0042164,90.041722 19.9731998,86.4379556 18.8500263,83.0643719 C17.434482,78.812618 17.2331112,70.7019203 18.2397131,58.717412 L18.2489964,58.6068866 L18.355595,58.5816368 L30.1482357,55.7883377 L30.1473872,55.9817767 L30.0720188,73.1646908 L30.0718415,73.2051084 L30.0519581,73.240147 C27.7622259,77.2751275 27.0687625,80.3116427 27.9489875,82.3432026 C29.4334231,85.7692812 31.4959928,87.4633969 35.9076046,88.4412417 C38.7852993,89.07909 41.2152604,89.0649934 42.9491437,88.1865486 C45.1065618,87.0935265 46.0786971,84.700637 45.5990494,80.7431115 C44.8945766,74.9305752 44.6431688,66.1928703 44.8442637,54.5274287 L44.8463619,54.4057138 L44.9639243,54.3806354 C47.7613896,53.7838809 49.1667642,52.1879943 49.2156389,49.5632619 C49.26506,46.9091909 47.8234654,43.8618213 44.8811227,40.4256505 L44.8442407,40.3825785 L44.8442407,14.6151124 L44.8740802,14.5745107 C46.6142275,12.2067357 47.4560225,10.0994118 47.4068238,8.25490724 C47.3682481,6.8086689 46.3748756,4.70111387 44.8742656,3.03663819 Z" id="Path"></path>
                </g>
            </g>
        </g>
    </g>
</svg>